<?xml version="1.0" encoding="UTF-8"?><svg id="_圖層_1" xmlns="http://www.w3.org/2000/svg" viewBox="0 0 300 300"><path d="M159.2,238.3h-16.8c-2.4,0-4.1-.5-5.2-1.6-1-1.1-1.6-2.8-1.6-5.2v-41.2c0-2.4,.5-4.2,1.6-5.2,1.1-1.1,2.8-1.6,5.1-1.6h17.8c2.3,0,4.6,.1,6.8,.5,1.8,.3,3.6,.9,5.2,1.9,1.3,.8,2.5,1.8,3.4,2.9,1,1.2,1.8,2.5,2.3,3.9,.5,1.5,.8,3,.8,4.5,0,5.5-2.7,9.5-8.2,12,7.2,2.3,10.8,6.8,10.8,13.4,0,2.9-.8,5.8-2.4,8.3-1.5,2.4-3.7,4.3-6.4,5.4-1.8,.7-3.8,1.2-5.8,1.5-2.3,.3-4.8,.5-7.4,.5Zm-12.3-46.5v14.2h10.1c2.2,.1,4.3-.2,6.4-.8,1.5-.5,2.7-1.6,3.5-3,.6-1.1,1-2.3,.9-3.5,0-2.8-1-4.6-3-5.5s-5-1.4-9-1.4h-8.9Zm11.5,22.1h-11.6v16h11.9c7.5,0,11.3-2.7,11.3-8.1,0-2.8-1-4.8-2.9-6s-4.8-1.9-8.7-1.9h0Z" fill="#ff1cf7" stroke="#ff1cf7"/><path d="M112.7,92.4c4,0,8.1,.1,12.2-.1,1.7-.1,2.3,.4,2.3,2.3-.1,10.6-.1,21.3,0,31.9v32.4c-27.9,17.3-36.4,54-19.1,81.9,17.3,27.9,54,36.4,81.9,19.1s36.4-54,19.1-81.9c-5-8-11.8-14.8-20-19.6V94.1c0-1.6,.6-1.8,1.9-1.7,4.2,.1,8.4,0,12.6,0,3.3,0,5.9-1.2,7.2-4.4s.3-5.9-2.1-8.3c-14.6-14.9-29.2-29.7-43.7-44.6-4.2-4.3-9.6-4.3-13.8,0-14.6,14.9-29.1,29.8-43.6,44.6-2.3,2.4-3.4,5.1-2,8.3s3.8,4.4,7.1,4.4Zm98.3,117c0,29-23.4,52.5-52.4,52.5s-52.5-23.4-52.5-52.4,23.4-52.5,52.4-52.5h.1c28.9,0,52.3,23.5,52.4,52.4h0ZM113.1,84c14.2-14.6,28.4-29.1,42.7-43.6,2-2,2.7-2,4.8,.1,14.1,14.4,28.2,28.9,42.3,43.3,.4,.4,1.1,.6,.8,1.5h-14.7c-3.7,0-6.7,2.9-6.8,6.6-.1,.9,0,1.7,0,2.6v60.4c-15.4-6.7-32.9-6.6-48.2,.4v-32.6h0v-29.4c0-5.1-2.7-7.8-7.7-7.8h-14.3c.6-.8,.8-1.2,1.1-1.5Z" fill="#ff1cf7" stroke="#ff1cf7"/></svg>