<svg id="圖層_1" data-name="圖層 1" xmlns="http://www.w3.org/2000/svg" viewBox="0 0 300 300"><path d="M176.72,99.08a16.39,16.39,0,0,1-2.6,9.08,17.21,17.21,0,0,1-7.62,6.31,28.5,28.5,0,0,1-11.89,2.28q-8.24,0-13.6-3.12a18,18,0,0,1-6.17-6,13.59,13.59,0,0,1-2.37-7.27,4.92,4.92,0,0,1,5.05-5,4.28,4.28,0,0,1,3,1.14,9.13,9.13,0,0,1,2.11,3.38,22.68,22.68,0,0,0,2.3,4.45,9.28,9.28,0,0,0,3.47,2.94,12.91,12.91,0,0,0,5.89,1.16,13.28,13.28,0,0,0,8.15-2.34,7,7,0,0,0,3.13-5.83,6.14,6.14,0,0,0-1.69-4.5,11,11,0,0,0-4.37-2.64c-1.78-.61-4.17-1.25-7.16-1.94a53.15,53.15,0,0,1-10.05-3.28,16.45,16.45,0,0,1-6.42-5.13,13.34,13.34,0,0,1-2.37-8.07A13.87,13.87,0,0,1,136,66.57a15.82,15.82,0,0,1,7.25-5.49,29.71,29.71,0,0,1,11.17-1.92,27.56,27.56,0,0,1,8.87,1.27,18.75,18.75,0,0,1,6.21,3.38,14.08,14.08,0,0,1,3.61,4.43,10.18,10.18,0,0,1,1.14,4.52,5.35,5.35,0,0,1-1.42,3.63A4.57,4.57,0,0,1,169.31,78a4.06,4.06,0,0,1-2.94-1,12.79,12.79,0,0,1-2.18-3.17,14.5,14.5,0,0,0-3.65-4.92c-1.42-1.18-3.7-1.76-6.84-1.76a11.87,11.87,0,0,0-7,1.91A5.58,5.58,0,0,0,144,73.71a4.68,4.68,0,0,0,.91,2.89,7.74,7.74,0,0,0,2.51,2.09,17.15,17.15,0,0,0,3.22,1.36q1.63.49,5.4,1.45a83,83,0,0,1,8.53,2.43A25.53,25.53,0,0,1,171,87.16a13.15,13.15,0,0,1,4.18,4.8A15.39,15.39,0,0,1,176.72,99.08Z" fill="#00e2a1"/><path d="M154.61,117.29c-5.56,0-10.23-1.07-13.87-3.19a18.74,18.74,0,0,1-6.36-6.16,14.17,14.17,0,0,1-2.45-7.56,5.47,5.47,0,0,1,5.59-5.52,4.87,4.87,0,0,1,3.39,1.28,9.61,9.61,0,0,1,2.24,3.58,22.1,22.1,0,0,0,2.24,4.34,8.85,8.85,0,0,0,3.28,2.77,12.38,12.38,0,0,0,5.64,1.1,12.79,12.79,0,0,0,7.82-2.23,6.45,6.45,0,0,0,2.92-5.4,5.58,5.58,0,0,0-1.53-4.12,10.52,10.52,0,0,0-4.16-2.51c-1.76-.6-4.15-1.24-7.11-1.92a53.46,53.46,0,0,1-10.15-3.32,16.87,16.87,0,0,1-6.63-5.3A13.88,13.88,0,0,1,133,74.74a14.44,14.44,0,0,1,2.61-8.48,16.32,16.32,0,0,1,7.49-5.68,30.37,30.37,0,0,1,11.37-2,28.44,28.44,0,0,1,9,1.3,19.53,19.53,0,0,1,6.38,3.48,14.78,14.78,0,0,1,3.75,4.6,10.8,10.8,0,0,1,1.19,4.76,5.89,5.89,0,0,1-1.56,4,5.08,5.08,0,0,1-4,1.79A4.56,4.56,0,0,1,166,77.42a13.37,13.37,0,0,1-2.29-3.3,13.71,13.71,0,0,0-3.52-4.76c-1.31-1.09-3.49-1.64-6.49-1.64A11.41,11.41,0,0,0,147,69.53a5,5,0,0,0-2.45,4.18,4.11,4.11,0,0,0,.8,2.56,7,7,0,0,0,2.34,1.94,16.53,16.53,0,0,0,3.12,1.33c1.07.32,2.88.8,5.37,1.43a85.55,85.55,0,0,1,8.57,2.45,26.54,26.54,0,0,1,6.64,3.3,14,14,0,0,1,4.34,5,16,16,0,0,1,1.56,7.37,16.94,16.94,0,0,1-2.69,9.38,17.83,17.83,0,0,1-7.84,6.5A29.15,29.15,0,0,1,154.61,117.29ZM137.52,95.94a4.39,4.39,0,0,0-4.51,4.44,13.08,13.08,0,0,0,2.29,7,17.61,17.61,0,0,0,6,5.81c3.47,2,8,3,13.32,3A28.15,28.15,0,0,0,166.28,114a16.89,16.89,0,0,0,7.39-6.11,15.9,15.9,0,0,0,2.51-8.79,14.86,14.86,0,0,0-1.44-6.87,12.81,12.81,0,0,0-4-4.61,25.5,25.5,0,0,0-6.36-3.16A84.33,84.33,0,0,0,155.9,82c-2.52-.63-4.34-1.12-5.43-1.45a17.4,17.4,0,0,1-3.33-1.41,8.22,8.22,0,0,1-2.68-2.24,5.19,5.19,0,0,1-1-3.21,6.1,6.1,0,0,1,2.9-5,12.35,12.35,0,0,1,7.36-2c3.26,0,5.67.63,7.18,1.89a14.75,14.75,0,0,1,3.79,5.1,12.53,12.53,0,0,0,2.08,3,3.53,3.53,0,0,0,2.56.82A4,4,0,0,0,172.46,76a4.76,4.76,0,0,0,1.29-3.27,9.68,9.68,0,0,0-1.08-4.28,13.94,13.94,0,0,0-3.48-4.26,18.51,18.51,0,0,0-6-3.28,27.43,27.43,0,0,0-8.7-1.24,29.2,29.2,0,0,0-11,1.88,15.31,15.31,0,0,0-7,5.3,13.39,13.39,0,0,0-2.41,7.86,12.82,12.82,0,0,0,2.27,7.75,15.79,15.79,0,0,0,6.21,5,52.13,52.13,0,0,0,9.95,3.24c3,.69,5.41,1.35,7.21,2a11.4,11.4,0,0,1,4.58,2.77,6.72,6.72,0,0,1,1.84,4.88,7.56,7.56,0,0,1-3.35,6.26,13.79,13.79,0,0,1-8.47,2.45,13.44,13.44,0,0,1-6.14-1.22,9.93,9.93,0,0,1-3.67-3.12,23.41,23.41,0,0,1-2.35-4.55,8.6,8.6,0,0,0-2-3.18A3.72,3.72,0,0,0,137.52,95.94Z" fill="#00e2a1"/><path d="M200,208.36c-4,0-8.11-.06-12.15.07-1.74.06-2.31-.36-2.29-2.27.1-10.63.06-21.28,0-31.92,0-.17,0-.34,0-.51V141.82a59.47,59.47,0,1,0-61.94.54q-.06,32.14,0,64.29c0,1.57-.57,1.75-1.86,1.73-4.2-.07-8.41,0-12.61,0-3.27,0-5.86,1.22-7.17,4.41s-.27,5.91,2,8.27q21.83,22.31,43.63,44.63c4.23,4.31,9.57,4.3,13.8,0q21.84-22.29,43.63-44.63c2.32-2.36,3.36-5.06,2-8.27S203.25,208.34,200,208.36Zm-98.29-117a52.47,52.47,0,1,1,52.47,52.47A52.53,52.53,0,0,1,101.69,91.34Zm97.87,125.39q-21.31,21.84-42.65,43.64c-2,2-2.71,2-4.75-.11Q131,238.6,109.84,216.93c-.37-.38-1.11-.63-.83-1.52,4.89,0,9.77.05,14.66,0a6.73,6.73,0,0,0,6.77-6.55c.07-.86.05-1.72.05-2.58q0-30.18,0-60.37a59.46,59.46,0,0,0,48.2-.37v32.66h0q0,14.7,0,29.42c0,5.11,2.69,7.79,7.67,7.81h14.26C200.11,216.06,199.86,216.43,199.56,216.73Z" fill="#00e2a1"/></svg>