<svg width="29" height="29" viewBox="0 0 29 29" fill="none" xmlns="http://www.w3.org/2000/svg">
<path d="M28.0168 14.5873C28.5416 14.5873 28.9918 14.1821 28.9993 13.6573C28.9998 13.6245 29 13.5916 29 13.5587C29 11.2093 28.3816 8.9012 27.2069 6.86644C26.0322 4.83179 24.3425 3.14217 22.3079 1.96747C20.2732 0.792769 17.9652 0.174316 15.6157 0.174316C15.5827 0.174316 15.5499 0.174564 15.517 0.175033C14.9923 0.182528 14.587 0.632681 14.587 1.15749V13.5873C14.587 14.1396 15.0348 14.5874 15.587 14.5873L28.0168 14.5873Z" fill="#232323"/>
<path d="M13.5269 16.6475C12.9746 16.6475 12.5269 16.1998 12.5269 15.6475V3.36554C12.5269 2.7832 12.0302 2.32069 11.455 2.41176C8.50423 2.87896 5.78316 4.32362 3.7383 6.53002C1.44795 9.0015 0.175068 12.2464 0.174255 15.6155C0.174255 15.9646 0.201559 16.3043 0.225899 16.6471C0.471205 19.8279 1.8461 22.8165 4.10193 25.0722C6.35776 27.328 9.3461 28.7029 12.527 28.9482C12.8698 28.9725 13.2098 28.9999 13.5586 28.9999C16.9279 28.999 20.1728 27.7261 22.6441 25.4358C24.8505 23.3912 26.2951 20.6698 26.7623 17.7191C26.8534 17.1439 26.3909 16.6472 25.8085 16.6472L13.5269 16.6475Z" fill="#232323"/>
</svg>
