<svg width="29" height="29" viewBox="0 0 29 29" fill="none" xmlns="http://www.w3.org/2000/svg">
<path d="M28.7739 14.413C28.7983 14.0701 28.8256 13.7302 28.8256 13.3844C28.8256 11.035 28.2071 8.72688 27.0324 6.69212C25.8577 4.65747 24.1681 2.96786 22.1335 1.79316C20.0988 0.618453 17.7907 0 15.4412 0C15.0954 0 14.7555 0.0273037 14.4126 0.0516436V14.413L28.7739 14.413Z" fill="#D2D2D2"/>
<path d="M12.3526 16.4727V2.11133C8.99304 2.36828 5.85439 3.88395 3.56404 6.35521C1.2737 8.8267 0.000812756 12.0716 0 15.4407C0 15.7898 0.027304 16.1295 0.0516439 16.4723C0.29695 19.6531 1.67185 22.6417 3.92768 24.8974C6.18351 27.1532 9.17185 28.5281 12.3527 28.7734C12.6956 28.7977 13.0355 28.825 13.3843 28.825C16.7537 28.8242 19.9985 27.5513 22.4698 25.261C24.9411 22.9709 26.4568 19.8318 26.7137 16.4724L12.3526 16.4727Z" fill="#D2D2D2"/>
</svg>
