<svg width="27" height="29" viewBox="0 0 27 29" fill="none" xmlns="http://www.w3.org/2000/svg">
<path opacity="0.3" d="M24.3699 28.9998H17.796C17.2437 28.9998 16.796 28.552 16.796 27.9998V20.1965C16.796 20.095 16.7258 20.0272 16.6206 20.0272L10.3791 20.0274C10.274 20.0274 10.2038 20.0952 10.2038 20.1968V28C10.2038 28.5523 9.75603 29 9.20373 29L2.62984 28.9998C1.19213 28.9998 0 27.8486 0 26.4604V12.1721C0 11.2918 0.385721 10.4453 1.01674 9.80202L1.05172 9.76824L11.5366 0.761863C12.6236 -0.253954 14.412 -0.253954 15.499 0.761863L25.9833 9.8021C26.6495 10.4114 27 11.2919 27 12.1721V26.4605C27 27.8825 25.8426 28.9998 24.3699 28.9998Z" fill="#878787"/>
</svg>
