<svg width="32" height="32" viewBox="0 0 32 32" fill="none" xmlns="http://www.w3.org/2000/svg">
<path d="M13 19H19V25.4615L16 25.5L13 25.4615V19Z" fill="#FF1CF7"/>
<rect x="13" y="7" width="6" height="6.5" fill="#00E2A1"/>
<path d="M31.9692 15.3683C31.9446 14.7527 31.8857 14.1371 31.813 13.5247C31.6203 11.9037 31.0914 10.3898 30.3838 8.91978C29.3861 6.85127 28.004 5.09218 26.2505 3.62966C24.8321 2.44552 23.2402 1.52582 21.4974 0.908054C19.9986 0.377009 18.4539 0.00870287 16.8449 0.00763221C16.1501 0.00763221 15.4543 -0.0137809 14.7606 0.0151268C14.2125 0.0365399 13.6569 0.070801 13.1227 0.184291C11.2171 0.590069 9.40045 1.23246 7.71973 2.2453C6.0861 3.22924 4.69763 4.49047 3.4965 5.94978C2.4688 7.2003 1.65948 8.60607 1.08782 10.1211C0.459426 11.7827 0.0119471 13.499 0.00445338 15.2966C-0.00411082 17.6199 0.00231233 19.9443 0.00231233 22.2677H0.00873548C0.00873548 24.7516 0.00766496 27.2355 0.0119471 29.7194C0.0119471 29.8715 0.0483449 30.0256 0.0868838 30.1744C0.332034 31.1284 1.42718 32.0096 2.53303 31.9999C6.84618 31.9635 11.1593 31.9881 15.4725 31.9817C16.1201 31.9806 16.7764 31.9903 17.4144 31.8961C18.516 31.7323 19.6229 31.5535 20.6977 31.2665C22.4748 30.7922 24.0677 29.9079 25.5482 28.8276C26.6198 28.046 27.5844 27.1402 28.4172 26.1102C29.5188 24.7505 30.3742 23.2398 31.0047 21.6081C31.5314 20.2441 31.8386 18.8234 31.966 17.3715C32.0238 16.7088 31.996 16.0354 31.9692 15.3683ZM18.6198 25.0867C17.7591 25.1809 16.8856 25.2269 16.0002 25.2269C15.1149 25.2269 14.2403 25.1809 13.3796 25.0867C13.2865 24.2259 13.2394 23.3501 13.2394 22.4647C13.2394 21.5792 13.2865 20.7034 13.3796 19.8426C14.2403 19.7484 15.1138 19.7013 16.0002 19.7013C16.8866 19.7013 17.7591 19.7484 18.6198 19.8426C18.7129 20.7034 18.76 21.5781 18.76 22.4647C18.76 23.3512 18.7129 24.2259 18.6198 25.0867ZM18.6198 13.3009C17.7591 13.3941 16.8856 13.4412 16.0002 13.4412C15.1149 13.4412 14.2403 13.3941 13.3796 13.3009C13.2865 12.4401 13.2394 11.5643 13.2394 10.6789C13.2394 9.79343 13.2865 8.91763 13.3796 8.05576C14.2403 7.96261 15.1138 7.9155 16.0002 7.9155C16.8866 7.9155 17.7591 7.96261 18.6198 8.05576C18.7129 8.91763 18.76 9.79236 18.76 10.6789C18.76 11.5654 18.7129 12.4401 18.6198 13.3009Z" fill="#232323"/>
</svg>
