<svg width="37" height="37" viewBox="0 0 37 37" fill="none" xmlns="http://www.w3.org/2000/svg">
<path d="M17.39 27.5597H19.424V19.424H27.5597V17.39H19.424V9.25427H17.39V17.39H9.25427V19.424H17.39V27.5597ZM18.407 36.7124C15.8646 36.7124 13.4835 36.2297 11.2638 35.2642C9.04274 34.2974 7.1105 32.9917 5.46708 31.3469C3.82231 29.7035 2.51652 27.7712 1.54972 25.5502C0.584283 23.3305 0.101562 20.9494 0.101562 18.407C0.101562 15.8646 0.584283 13.4828 1.54972 11.2618C2.51652 9.04207 3.82231 7.10983 5.46708 5.46505C7.1105 3.82163 9.04274 2.51652 11.2638 1.54972C13.4835 0.584283 15.8646 0.101562 18.407 0.101562C20.9494 0.101562 23.3311 0.584283 25.5522 1.54972C27.7719 2.51652 29.7041 3.82163 31.3489 5.46505C32.9923 7.10983 34.2974 9.04207 35.2642 11.2618C36.2297 13.4828 36.7124 15.8646 36.7124 18.407C36.7124 20.9494 36.2297 23.3305 35.2642 25.5502C34.2974 27.7712 32.9923 29.7035 31.3489 31.3469C29.7041 32.9917 27.7719 34.2974 25.5522 35.2642C23.3311 36.2297 20.9494 36.7124 18.407 36.7124ZM18.407 34.6785C22.9494 34.6785 26.797 33.1022 29.9496 29.9496C33.1022 26.797 34.6785 22.9494 34.6785 18.407C34.6785 13.8645 33.1022 10.017 29.9496 6.8644C26.797 3.7118 22.9494 2.1355 18.407 2.1355C13.8645 2.1355 10.017 3.7118 6.8644 6.8644C3.7118 10.017 2.1355 13.8645 2.1355 18.407C2.1355 22.9494 3.7118 26.797 6.8644 29.9496C10.017 33.1022 13.8645 34.6785 18.407 34.6785Z" fill="#36EAB6"/>
</svg>
