<svg width="30" height="30" viewBox="0 0 30 30" fill="none" xmlns="http://www.w3.org/2000/svg">
    <mask id="mask0_386_7276" style="mask-type:alpha" maskUnits="userSpaceOnUse" x="0" y="0"
        width="30" height="30">
        <rect width="30" height="30" fill="#36EAB6" />
    </mask>
    <g mask="url(#mask0_386_7276)">
        <path
            d="M13.5038 3L12.0075 6.56112C11.7083 6.65089 11.4389 6.80052 11.1696 6.95015L7.6085 5.45388L5.45388 7.6085L6.95015 11.1696C6.80052 11.4689 6.68082 11.7083 6.56112 12.0075L3 13.5038V16.4963L6.56112 17.9926C6.68082 18.2919 6.80052 18.5313 6.95015 18.8305L5.45388 22.3916L7.6085 24.5462L11.1696 23.05C11.4389 23.1697 11.7083 23.3193 12.0075 23.439L13.5038 27.0001H16.4963L17.9926 23.439C18.2619 23.3193 18.5612 23.1996 18.8305 23.05L22.3916 24.5462L24.5462 22.3916L23.05 18.8305C23.1697 18.5612 23.3193 18.2619 23.439 17.9926L27.0001 16.4963V13.5038L23.439 12.0075C23.3492 11.7382 23.1996 11.4389 23.05 11.1696L24.5462 7.6085L22.3916 5.45388L18.8305 6.95015C18.5612 6.83044 18.2619 6.68082 17.9926 6.56112L16.4963 3H13.5038V3ZM15.0001 10.4813C17.4839 10.4813 19.4889 12.4863 19.4889 14.9701C19.4889 17.4539 17.4839 19.4589 15.0001 19.4589C12.5163 19.4589 10.5113 17.4539 10.5113 14.9701C10.5113 12.4863 12.5163 10.4813 15.0001 10.4813Z"
            fill="#36EAB6" />
    </g>
</svg>
