<svg width="24" height="26" viewBox="0 0 24 26" fill="none" xmlns="http://www.w3.org/2000/svg">
<path d="M12.0008 25.9178C9.2477 25.9178 6.4955 25.9236 3.74238 25.9157C1.85743 25.9106 0.367335 24.9074 0.0454243 23.4389C0.00256367 23.2456 0.00256366 23.0444 0.00256365 22.8474C-0.000172297 19.1315 -0.00108439 15.4163 0.00165124 11.7004C0.00347501 9.89869 1.58841 8.64586 3.86093 8.64153C4.40718 8.64081 4.95251 8.63793 5.49876 8.64226C6.16355 8.64803 6.64232 9.01587 6.63867 9.51137C6.63502 10.0025 6.1517 10.3639 5.48325 10.3682C4.90327 10.3718 4.32328 10.3646 3.74329 10.3704C2.83775 10.3783 2.18846 10.881 2.18754 11.5951C2.18298 15.3824 2.18299 19.1697 2.18754 22.9578C2.18754 23.6877 2.83593 24.1897 3.76701 24.1897C9.24952 24.1919 14.732 24.1919 20.2146 24.1897C21.1611 24.1897 21.8068 23.6928 21.8077 22.9405C21.815 19.1712 21.8141 15.4012 21.8077 11.6319C21.8068 10.863 21.1657 10.3747 20.1945 10.3697C19.6938 10.3675 19.1932 10.3733 18.6935 10.3682C18.0323 10.3617 17.5499 9.98668 17.5581 9.49406C17.5663 9.01442 18.0478 8.63504 18.6907 8.64658C19.5397 8.66245 20.4106 8.62711 21.2323 8.7627C22.8053 9.02164 23.927 10.1511 23.9781 11.4241C24.0146 12.3322 23.9945 13.241 23.9945 14.1498C23.9954 17.0464 23.9972 19.9437 23.9945 22.8402C23.9927 24.2388 23.0616 25.3394 21.4931 25.7469C21.059 25.8594 20.5811 25.9085 20.1224 25.9106C17.4158 25.9258 14.7083 25.9178 12.0008 25.9178Z" fill="#36EAB6"/>
<path d="M10.5716 2.92895C9.9391 3.677 9.30588 4.42431 8.67342 5.17236C8.54782 5.32079 8.42821 5.47439 8.29514 5.61617C7.94825 5.98688 7.41821 6.01937 7.03918 5.69962C6.67435 5.39242 6.60408 4.86148 6.9218 4.48413C8.02451 3.17412 9.12347 1.85968 10.2591 0.577729C10.9483 -0.199858 12.1804 -0.190996 12.8629 0.594714C13.9739 1.87371 15.0482 3.18372 16.1254 4.49077C16.4439 4.87698 16.3557 5.42639 15.9714 5.72399C15.5932 6.01715 15.0654 5.97358 14.7416 5.5955C14.0247 4.75883 13.3205 3.91183 12.611 3.06926C12.5699 3.02052 12.5265 2.97326 12.4263 2.86102L12.4263 3.23541C12.4263 7.25184 12.4263 11.2683 12.4263 15.2847C12.4263 15.8215 12.1998 16.1605 11.7655 16.2853C11.2332 16.4389 10.683 16.0638 10.6418 15.5173C10.6344 15.4161 10.6374 15.315 10.6374 15.2138C10.6374 11.2247 10.6374 7.23633 10.6374 3.24722L10.6374 2.95111C10.6164 2.94372 10.5947 2.93634 10.5738 2.92821L10.5716 2.92895Z" fill="#36EAB6"/>
</svg>
