<svg width="71" height="71" viewBox="0 0 71 71" fill="none" xmlns="http://www.w3.org/2000/svg">
<g filter="url(#filter0_f_6847_7876)">
<circle cx="35.4109" cy="34.7293" r="22.7781" fill="url(#paint0_radial_6847_7876)" fill-opacity="0.4"/>
</g>
<circle cx="35.4109" cy="34.7293" r="22.2781" stroke="white" stroke-opacity="0.6"/>
<g filter="url(#filter1_f_6847_7876)">
<circle cx="35.4789" cy="35.4789" r="29.4789" fill="url(#paint1_radial_6847_7876)" fill-opacity="0.15"/>
</g>
<circle cx="35.4789" cy="35.4789" r="28.9789" stroke="white" stroke-opacity="0.3"/>
<path d="M20.5098 29.5134C20.5653 29.2437 20.6088 28.9707 20.6781 28.705C21.3339 26.1979 22.924 24.6256 25.4213 24.023C28.1296 23.3692 31.1142 24.884 32.2766 27.4511C32.4691 27.8763 32.3628 28.2595 32.0019 28.4442C31.6547 28.6216 31.2801 28.5001 31.0658 28.0878C30.6856 27.3587 30.2071 26.7228 29.5465 26.2247C27.212 24.4644 23.8037 25.2348 22.4504 27.835C21.2162 30.2068 22.0887 33.072 24.432 34.3462C24.5529 34.4118 24.6753 34.4774 24.7881 34.5552C25.1208 34.7852 25.2118 35.1587 25.0225 35.4867C24.8437 35.7954 24.4739 35.9088 24.1211 35.7443C23.0022 35.2227 22.1112 34.4361 21.4563 33.3855C20.9689 32.6038 20.6644 31.7548 20.5613 30.8346C20.5565 30.7885 20.5283 30.7455 20.5114 30.701C20.5114 30.3049 20.5114 29.9088 20.5114 29.5126L20.5098 29.5134Z" fill="white"/>
<path d="M30.9887 30.6608C31.3077 29.7795 31.8684 29.193 32.7231 28.9176C33.5649 28.6463 34.3503 28.8066 35.1003 29.3089C35.4088 28.4373 35.9598 27.8297 36.8226 27.5446C37.6757 27.2635 38.4691 27.4166 39.224 27.9277C39.4133 27.415 39.6718 26.9711 40.0932 26.6325C41.1791 25.7584 42.7048 25.8079 43.6497 26.8342C45.4687 28.8099 47.2933 30.7832 49.0349 32.8261C50.4801 34.5215 50.9747 36.545 50.6565 38.7597C50.4253 40.3701 49.7228 41.7496 48.6015 42.9104C47.8064 43.7342 47.0008 44.5491 46.1703 45.3373C44.7147 46.7192 42.9577 47.3753 40.9688 47.381C36.7162 47.3932 32.4629 47.3883 28.2103 47.3826C26.6685 47.3802 25.7042 46.0987 26.1038 44.6066C26.4647 43.2571 27.4297 42.4316 28.8419 42.221C30.5247 41.9699 32.2035 41.6961 33.8847 41.4304C33.9685 41.4174 34.0498 41.3939 34.1658 41.368C34.0668 41.2627 33.9902 41.1769 33.9089 41.095C30.9364 38.106 27.9654 35.1161 24.9905 32.1303C24.479 31.6167 24.1551 31.0262 24.0762 30.289C23.9384 29.0027 25.0324 27.6288 26.3124 27.4895C27.2396 27.3891 28.0122 27.675 28.6631 28.3352C29.3558 29.0383 30.0543 29.7358 30.7511 30.4356C30.8195 30.5045 30.892 30.5685 30.9895 30.66L30.9887 30.6608ZM34.8884 45.9991C36.8766 45.9991 38.8647 45.9942 40.8536 46.0007C42.5856 46.0064 44.0968 45.4458 45.347 44.2299C46.1179 43.4798 46.8913 42.7297 47.6147 41.9343C48.0279 41.479 48.417 40.9711 48.6909 40.4235C49.8904 38.0209 49.5094 35.3656 47.7162 33.3696C46.0599 31.526 44.3916 29.6936 42.729 27.8565C42.6959 27.82 42.6637 27.7819 42.6283 27.7479C42.1425 27.2886 41.4054 27.2838 40.9156 27.7366C40.4291 28.1853 40.3759 28.9298 40.7924 29.4539C40.8721 29.5543 40.9599 29.6499 41.026 29.7584C41.1613 29.9788 41.1605 30.208 41.0324 30.4332C40.8979 30.6697 40.6852 30.8156 40.4259 30.767C40.2277 30.7297 40.0166 30.622 39.8676 30.4842C39.3682 30.0225 38.913 29.5114 38.4047 29.0602C37.9343 28.643 37.2101 28.7046 36.7654 29.1436C36.3111 29.5924 36.2539 30.319 36.6582 30.8156C36.8693 31.0748 37.1198 31.3024 37.3526 31.5438C37.6467 31.8492 37.9584 32.14 38.2307 32.464C38.4571 32.7321 38.4111 33.1193 38.1735 33.3534C37.9383 33.5859 37.5911 33.6151 37.3083 33.4182C37.2125 33.351 37.1263 33.2676 37.0425 33.1841C36.1854 32.3247 35.3331 31.4595 34.472 30.6033C33.929 30.063 33.2161 30.0185 32.6965 30.477C32.1189 30.9865 32.1125 31.7957 32.6957 32.3887C33.5472 33.2546 34.4075 34.1108 35.2622 34.9727C35.3589 35.0699 35.4539 35.1744 35.5256 35.2903C35.69 35.5551 35.6457 35.8905 35.433 36.11C35.2187 36.3312 34.857 36.379 34.5952 36.2056C34.4736 36.1246 34.364 36.0209 34.2609 35.9172C32.0947 33.7423 29.931 31.5648 27.7657 29.3891C27.6617 29.2846 27.5562 29.1776 27.4394 29.0893C26.679 28.5158 25.585 28.9881 25.4618 29.9358C25.3973 30.4365 25.6164 30.8075 25.954 31.1461C29.3051 34.5094 32.6514 37.8775 36.0017 41.2417C36.2337 41.4741 36.3852 41.7236 36.282 42.0598C36.1781 42.4008 35.9026 42.5142 35.5836 42.5637C34.6605 42.7062 33.7373 42.8504 32.8149 42.997C31.4551 43.2133 30.0937 43.4166 28.738 43.6564C27.9695 43.7925 27.437 44.4486 27.3959 45.2182C27.3734 45.6345 27.6029 45.9221 28.0122 45.9796C28.1378 45.9974 28.2667 45.9991 28.3948 45.9991C30.5602 45.9999 32.7255 45.9991 34.8917 45.9991H34.8884Z" fill="white"/>
<defs>
<filter id="filter0_f_6847_7876" x="6.63281" y="5.95117" width="57.5566" height="57.5566" color-interpolation-filters="sRGB">
<feFlood flood-opacity="0" result="BackgroundImageFix"/>
<feBlend in="SourceGraphic" in2="BackgroundImageFix" result="shape"/>
<feGaussianBlur stdDeviation="3" result="effect1_foregroundBlur_6847_7876"/>
</filter>
<filter id="filter1_f_6847_7876" x="0" y="0" width="70.957" height="70.958" color-interpolation-filters="sRGB">
<feFlood flood-opacity="0" result="BackgroundImageFix"/>
<feBlend in="SourceGraphic" in2="BackgroundImageFix" result="shape"/>
<feGaussianBlur stdDeviation="3" result="effect1_foregroundBlur_6847_7876"/>
</filter>
<radialGradient id="paint0_radial_6847_7876" cx="0" cy="0" r="1" gradientTransform="translate(35.4109 34.7293) rotate(90) scale(22.7781)">
<stop stop-color="white" stop-opacity="0"/>
<stop offset="1" stop-color="white"/>
</radialGradient>
<radialGradient id="paint1_radial_6847_7876" cx="0" cy="0" r="1" gradientTransform="translate(35.4789 35.4789) rotate(90) scale(29.4789)">
<stop stop-color="white" stop-opacity="0"/>
<stop offset="1" stop-color="white"/>
</radialGradient>
</defs>
</svg>
