<svg width="17" height="20" viewBox="0 0 17 20" fill="none" xmlns="http://www.w3.org/2000/svg">
<path d="M3.51942 19.597H2.73018C2.66501 19.5831 2.59936 19.5707 2.53467 19.5548C1.73154 19.3583 1.07312 18.9265 0.580025 18.2397C0.244108 17.7717 0.0136141 17.2392 0.0112181 16.6586C-0.003637 12.412 0.000196576 8.16501 0.00115497 3.91797C0.00115497 3.71053 0.0160101 3.5016 0.0418867 3.29615C0.146352 2.47185 0.553669 1.81232 1.16177 1.30464C1.77946 0.789515 2.49538 0.549819 3.31145 0.604904C3.86157 0.642124 4.35849 0.801425 4.82907 1.07338C5.63939 1.54136 6.44396 2.02025 7.25189 2.49319C8.10007 2.98946 8.94968 3.48374 9.79834 3.97901C10.6518 4.47726 11.5052 4.97601 12.3582 5.47574C13.3521 6.05786 14.3392 6.65338 15.3422 7.21813C15.9086 7.53723 16.3504 7.97345 16.6418 8.55805C16.9772 9.23098 17.0788 9.94511 16.9393 10.7019C16.7812 11.5609 16.3916 12.2746 15.679 12.7301C14.6306 13.4006 13.5476 14.0125 12.4756 14.6428C11.4981 15.2174 10.5162 15.7837 9.53574 16.3534C8.66504 16.8596 7.79386 17.3648 6.92364 17.8724C6.39269 18.1821 5.86749 18.5022 5.33366 18.8064C4.96516 19.0163 4.5933 19.2233 4.20946 19.3999C3.99335 19.4992 3.74991 19.5334 3.51846 19.597H3.51942Z" fill="#878787"/>
</svg>
