<svg width="27" height="23" viewBox="0 0 27 23" fill="none" xmlns="http://www.w3.org/2000/svg">
<path d="M6.76606 10.4181C8.65655 10.4181 10.547 10.4181 12.4375 10.4181C12.8376 10.4181 13.238 10.4261 13.6372 10.4087C13.8457 10.3996 14.0503 10.4367 14.2588 10.4221C14.4804 10.4063 14.7039 10.4185 14.9267 10.4185H16.9149C17.1788 10.4185 17.1709 10.4154 17.2619 10.1716C17.4683 9.52122 17.86 8.94517 18.389 8.51413C18.9181 8.08309 19.5614 7.8158 20.2401 7.74503C21.0809 7.63419 21.9336 7.82707 22.6449 8.28896C23.3562 8.75085 23.8792 9.45143 24.12 10.2646C24.1266 10.3124 24.152 10.3557 24.1905 10.3848C24.229 10.414 24.2775 10.4267 24.3253 10.4201C24.9283 10.4158 25.5313 10.4225 26.1343 10.4158C26.2874 10.4158 26.3464 10.4589 26.3436 10.6184C26.3354 11.0855 26.3354 11.5526 26.3436 12.0198C26.3464 12.1816 26.2839 12.2224 26.1331 12.2208C25.5574 12.2145 24.9813 12.2244 24.4056 12.2153C24.3352 12.203 24.2627 12.2191 24.2041 12.2601C24.1456 12.3011 24.1056 12.3637 24.0931 12.4341C23.858 13.1633 23.396 13.7983 22.7744 14.2464C22.1528 14.6944 21.4043 14.932 20.6381 14.9244C19.8855 14.9158 19.1546 14.6708 18.5488 14.2241C17.9431 13.7773 17.4932 13.1514 17.2627 12.4349C17.2501 12.3648 17.2105 12.3024 17.1524 12.2612C17.0943 12.22 17.0224 12.2032 16.9521 12.2145C11.4217 12.2187 5.89137 12.2199 0.361015 12.218C0.306715 12.2152 0.2523 12.2152 0.198 12.218C0.0599125 12.2327 0.00807738 12.1852 0.010847 12.0364C0.020343 11.5478 0.0183647 11.0587 0.010847 10.5697C0.010847 10.4474 0.0409235 10.4138 0.165163 10.4142C2.36533 10.4187 4.56563 10.42 6.76606 10.4181ZM22.4839 11.3218C22.4852 10.8441 22.2975 10.3853 21.9618 10.0455C21.6261 9.70562 21.1696 9.51231 20.6919 9.50772C20.2125 9.5084 19.7525 9.69762 19.4114 10.0345C19.0703 10.3714 18.8753 10.829 18.8687 11.3084C18.8675 11.7865 19.0554 12.2456 19.3914 12.5858C19.7274 12.9259 20.1842 13.1194 20.6622 13.1241C20.9004 13.1262 21.1366 13.0812 21.3573 12.9917C21.578 12.9021 21.7788 12.7698 21.9481 12.6023C22.1174 12.4348 22.2519 12.2355 22.3439 12.0158C22.4359 11.7961 22.4834 11.5604 22.4839 11.3222V11.3218Z" fill="#D2D2D2"/>
<path d="M20.5853 19.9166C18.7494 19.9166 16.9132 19.9189 15.0773 19.9134C15.0123 19.9034 14.946 19.9192 14.8926 19.9574C14.8391 19.9956 14.8027 20.0533 14.7912 20.118C14.6091 20.7198 14.2679 21.2613 13.8036 21.6852C13.3393 22.1092 12.7691 22.4 12.1533 22.5268C11.5643 22.6731 10.9471 22.6619 10.3638 22.4944C9.78041 22.3269 9.25136 22.009 8.8297 21.5724C8.40581 21.1639 8.09535 20.6522 7.92876 20.0875C7.92416 20.0602 7.91422 20.034 7.89949 20.0105C7.88477 19.987 7.86556 19.9666 7.84295 19.9506C7.82035 19.9345 7.79481 19.9231 7.76778 19.9169C7.74075 19.9107 7.71277 19.9099 7.68543 19.9146C6.09934 19.918 4.51325 19.9187 2.92715 19.9166C2.02029 19.9166 1.11302 19.9138 0.206157 19.9189C0.0625301 19.9189 0.00832253 19.8861 0.0106965 19.729C0.0197968 19.2404 0.0162385 18.7513 0.00595114 18.2627C0.00278581 18.1187 0.081914 18.1179 0.180039 18.1179H4.04214C5.2414 18.1179 6.44067 18.1155 7.63993 18.1214C7.70766 18.1324 7.777 18.1167 7.83337 18.0775C7.88975 18.0384 7.92877 17.979 7.94222 17.9117C8.13857 17.2644 8.51837 16.6878 9.03563 16.2519C9.5529 15.8159 10.1854 15.5393 10.8567 15.4554C11.3712 15.3713 11.8981 15.4051 12.3976 15.5543C12.8972 15.7035 13.3563 15.9642 13.7403 16.3168C14.2445 16.7519 14.6131 17.3226 14.8023 17.9612C14.847 18.1064 14.938 18.1194 15.0606 18.1194C16.0928 18.1176 17.1248 18.1176 18.1567 18.1194H26.0115C26.3783 18.1194 26.3403 18.1028 26.3407 18.4407C26.3407 18.8427 26.3407 19.2447 26.3407 19.6467C26.3407 19.9181 26.3407 19.9181 26.0768 19.9181L20.5853 19.9166ZM11.3493 20.823C11.8294 20.8271 12.2916 20.6405 12.6343 20.3042C12.9769 19.9678 13.1721 19.5092 13.1769 19.0291C13.1756 18.5519 12.9875 18.0941 12.6529 17.7539C12.3182 17.4137 11.8636 17.2181 11.3865 17.209C10.9089 17.2041 10.4486 17.3876 10.1054 17.7197C9.76208 18.0517 9.56348 18.5057 9.55258 18.9832C9.54839 19.2223 9.59168 19.4599 9.67996 19.6822C9.76823 19.9045 9.89973 20.1071 10.0668 20.2782C10.2339 20.4493 10.4333 20.5856 10.6535 20.6791C10.8736 20.7726 11.1101 20.8216 11.3493 20.823Z" fill="#D2D2D2"/>
<path d="M18.3855 4.50073H11.313C11.0795 4.50073 10.8457 4.50825 10.6126 4.49835C10.5861 4.49456 10.559 4.49604 10.533 4.50272C10.5071 4.50941 10.4827 4.52116 10.4612 4.53729C10.4398 4.55343 10.4218 4.57365 10.4082 4.59678C10.3946 4.6199 10.3857 4.64549 10.382 4.67206C10.16 5.39968 9.71141 6.03735 9.10159 6.49212C8.5801 6.88921 7.9584 7.13335 7.30605 7.1972C6.66509 7.2689 6.01685 7.15994 5.43455 6.88264C4.98017 6.67682 4.57461 6.37697 4.24464 6.00287C3.91467 5.62877 3.6678 5.18894 3.52032 4.71242C3.51464 4.67787 3.50213 4.6448 3.48354 4.61513C3.46494 4.58546 3.44063 4.55979 3.41202 4.53961C3.3834 4.51943 3.35107 4.50514 3.31688 4.49758C3.28269 4.49002 3.24734 4.48935 3.21289 4.49559C2.20275 4.50311 1.19222 4.49558 0.18169 4.5035C0.0281718 4.5035 0.00680441 4.45721 0.00838707 4.32071C0.0141902 3.81584 0.0114221 3.31083 7.96281e-05 2.8057C-0.00269003 2.68304 0.0673443 2.71905 0.123925 2.71905C1.15068 2.71905 2.17743 2.7147 3.20379 2.7242C3.27617 2.73593 3.35026 2.71872 3.41007 2.67631C3.46988 2.63389 3.51062 2.56967 3.52349 2.49748C3.72857 1.83257 4.12605 1.24332 4.66575 0.804114C5.20544 0.364908 5.86316 0.0954331 6.55587 0.0297104C7.31838 -0.0724372 8.09283 0.0905791 8.74945 0.49145C9.52027 0.9336 10.0963 1.6498 10.363 2.49748C10.3768 2.57047 10.4188 2.6351 10.4799 2.67743C10.5409 2.71976 10.6162 2.73641 10.6894 2.7238C15.7956 2.71905 20.9018 2.71786 26.008 2.72023C26.0568 2.72308 26.1056 2.72308 26.1544 2.72023C26.2976 2.70362 26.3443 2.76495 26.3423 2.9066C26.336 3.38456 26.336 3.86252 26.3423 4.34049C26.3423 4.47027 26.3028 4.50429 26.1738 4.5039C24.4086 4.49941 22.6434 4.49822 20.8782 4.50033L18.3855 4.50073ZM8.75459 3.61997C8.7522 3.13684 8.5593 2.67416 8.21778 2.33242C7.87626 1.99068 7.4137 1.79748 6.93057 1.79478C6.4527 1.80124 5.99669 1.99605 5.66166 2.33686C5.32663 2.67767 5.13965 3.13694 5.14137 3.61484C5.14011 3.85289 5.18599 4.08882 5.27635 4.30906C5.36671 4.52929 5.49977 4.72946 5.66786 4.89803C5.83595 5.0666 6.03575 5.20023 6.25572 5.29122C6.4757 5.38221 6.71151 5.42875 6.94956 5.42817C7.42697 5.4222 7.88311 5.22969 8.22042 4.89179C8.55774 4.55388 8.74946 4.0974 8.75459 3.61997Z" fill="#D2D2D2"/>
</svg>
