<svg width="24" height="26" viewBox="0 0 24 26" fill="none" xmlns="http://www.w3.org/2000/svg">
<path d="M11.9992 0.0821544C14.7523 0.0821545 17.5045 0.0763846 20.2576 0.0843185C22.1426 0.0893674 23.6327 1.09264 23.9546 2.56112C23.9974 2.75442 23.9974 2.95565 23.9974 3.15255C24.0002 6.86848 24.0011 10.5837 23.9983 14.2996C23.9965 16.1013 22.4116 17.3541 20.1391 17.3585C19.5928 17.3592 19.0475 17.3621 18.5012 17.3577C17.8364 17.352 17.3577 16.9841 17.3613 16.4886C17.365 15.9975 17.8483 15.6361 18.5167 15.6318C19.0967 15.6282 19.6767 15.6354 20.2567 15.6296C21.1622 15.6217 21.8115 15.119 21.8125 14.4049C21.817 10.6176 21.817 6.83025 21.8125 3.0422C21.8125 2.31229 21.1641 1.81029 20.233 1.81029C14.7505 1.80813 9.26796 1.80813 3.78545 1.81029C2.83887 1.81029 2.19322 2.30724 2.19231 3.05951C2.18501 6.82881 2.18593 10.5988 2.19231 14.3681C2.19322 15.137 2.83431 15.6253 3.80551 15.6303C4.30616 15.6325 4.80681 15.6267 5.30654 15.6318C5.96769 15.6383 6.4501 16.0133 6.4419 16.5059C6.43369 16.9856 5.95219 17.365 5.30928 17.3534C4.46027 17.3375 3.58938 17.3729 2.76774 17.2373C1.19466 16.9784 0.0729859 15.8489 0.0219186 14.5758C-0.0145594 13.6678 0.00550405 12.759 0.00550409 11.8502C0.00459251 8.95364 0.00276921 6.05634 0.00550447 3.15976C0.00732796 1.76124 0.938408 0.660603 2.50692 0.253092C2.941 0.140576 3.41885 0.0915304 3.87755 0.0893666C6.58416 0.0742203 9.29167 0.0821543 11.9992 0.0821544Z" fill="#EA1DD6"/>
<path d="M13.4284 23.071C14.0609 22.323 14.6941 21.5757 15.3266 20.8276C15.4522 20.6792 15.5718 20.5256 15.7049 20.3838C16.0517 20.0131 16.5818 19.9806 16.9608 20.3004C17.3256 20.6076 17.3959 21.1385 17.0782 21.5159C15.9755 22.8259 14.8765 24.1403 13.7409 25.4223C13.0516 26.1999 11.8196 26.191 11.1371 25.4053C10.0261 24.1263 8.95184 22.8163 7.87455 21.5092C7.55608 21.123 7.6443 20.5736 8.02856 20.276C8.40684 19.9828 8.93464 20.0264 9.25835 20.4045C9.9753 21.2412 10.6795 22.0882 11.389 22.9307C11.4301 22.9795 11.4735 23.0267 11.5737 23.139L11.5737 22.7646C11.5737 18.7482 11.5737 14.7317 11.5737 10.7153C11.5737 10.1785 11.8002 9.8395 12.2345 9.7147C12.7668 9.56111 13.317 9.93624 13.3582 10.4827C13.3656 10.5839 13.3626 10.685 13.3626 10.7862C13.3626 14.7753 13.3626 18.7637 13.3626 22.7528L13.3626 23.0489C13.3836 23.0563 13.4053 23.0637 13.4262 23.0718L13.4284 23.071Z" fill="#EA1DD6"/>
</svg>
