<svg width="31" height="31" viewBox="0 0 31 31" fill="none" xmlns="http://www.w3.org/2000/svg">
    <path
        d="M5.28076 8.33546C5.28076 8.13539 5.28076 7.93561 5.28076 7.73555C5.41653 7.40517 5.50207 7.04092 5.69783 6.75101C6.34481 5.79317 7.45134 5.52278 8.59805 5.9984C11.1076 7.0392 13.6169 8.08143 16.1265 9.12251C19.8766 10.6785 23.6262 12.2354 27.3774 13.7889C28.0925 14.0851 28.6134 14.5619 28.8181 15.3248C29.1436 16.5387 28.5755 17.6116 27.3553 18.118C22.2444 20.2392 17.1337 22.3609 12.0218 24.4807C10.7741 24.998 9.53207 25.531 8.27083 26.0129C7.36293 26.3597 6.35055 26.0155 5.75523 25.2497C5.50322 24.9253 5.3884 24.5485 5.28105 24.1647C5.28105 23.9646 5.28105 23.7648 5.28105 23.5648C5.29052 23.553 5.30516 23.5427 5.3086 23.5292C5.62435 22.2714 5.93722 21.0127 6.25497 19.7555C6.51588 18.7222 6.78254 17.6906 7.05063 16.6423H7.33164C9.93794 16.6423 12.5439 16.6423 15.1502 16.6423C15.2349 16.6423 15.3199 16.6458 15.4037 16.6386C15.7843 16.6061 16.0521 16.3062 16.0426 15.927C16.0326 15.5217 15.7301 15.2585 15.2653 15.2582C12.6206 15.2574 9.97611 15.2576 7.33135 15.2576C7.24008 15.2576 7.1488 15.2576 7.05781 15.2576C7.03456 15.183 7.0136 15.1259 6.99868 15.0673C6.64074 13.6617 6.28367 12.2558 5.92545 10.8502C5.7116 10.0115 5.49575 9.17332 5.28076 8.33517V8.33546Z"
        fill="#232323" />
</svg>
