<svg width="20" height="20" viewBox="0 0 20 20" fill="none" xmlns="http://www.w3.org/2000/svg">
<path fill-rule="evenodd" clip-rule="evenodd" d="M6.125 19.2125C7.34167 19.7375 8.63333 20 10 20C11.3833 20 12.6833 19.7375 13.9 19.2125C15.1167 18.6875 16.175 17.9708 17.075 17.0625C17.975 16.1542 18.6875 15.0917 19.2125 13.875C19.7375 12.6583 20 11.3667 20 10C20 8.61667 19.7375 7.31667 19.2125 6.1C18.6875 4.88333 17.975 3.825 17.075 2.925C16.175 2.025 15.1167 1.3125 13.9 0.7875C12.6833 0.2625 11.3833 0 10 0C8.63333 0 7.34167 0.2625 6.125 0.7875C4.90833 1.3125 3.84583 2.025 2.9375 2.925C2.02917 3.825 1.3125 4.88333 0.7875 6.1C0.2625 7.31667 0 8.61667 0 10C0 11.3667 0.2625 12.6583 0.7875 13.875C1.3125 15.0917 2.02917 16.1542 2.9375 17.0625C3.84583 17.9708 4.90833 18.6875 6.125 19.2125ZM15.6004 7.47495L8.52539 14.55L4.40039 10.4L5.52539 9.27495L8.52539 12.275L14.4504 6.34995L15.6004 7.47495Z" fill="#424B5A"/>
</svg>
