<svg width="27" height="35" viewBox="0 0 27 35" fill="none" xmlns="http://www.w3.org/2000/svg">
<path d="M15.8743 15.9752C15.1781 15.1983 14.4906 14.3302 13.8713 13.5492C13.5793 13.1801 13.3 12.8282 13.0384 12.5085L13.0191 12.4852C13.4016 11.3941 13.6206 10.5012 13.6694 9.8305C13.7933 8.12222 13.6027 7.02176 13.0872 6.46713C12.739 6.09187 12.2159 5.9611 11.7242 6.12676C11.3718 6.24488 10.8947 6.56172 10.6221 7.39831C10.2157 8.64532 10.4127 10.8539 11.5679 12.6806C11.0524 14.0323 10.3337 15.5852 9.53983 17.0641C8.02807 17.5946 6.82303 18.2921 5.95821 19.1385C4.82825 20.2426 4.369 21.3387 4.69766 22.1448C4.90005 22.6441 5.36831 22.9421 5.94969 22.9421C6.35447 22.9421 6.7923 22.7958 7.21619 22.5193C8.28621 21.8189 9.68311 19.4859 10.4325 18.134C11.9828 17.6495 13.5136 17.4513 14.2915 17.376C14.6433 17.3419 14.9928 17.3148 15.3292 17.2959C16.6908 18.7354 17.8044 19.4944 18.8304 19.6839C19.0369 19.7224 19.2434 19.7418 19.445 19.7418C20.2812 19.7418 20.972 19.4079 21.2944 18.8489C21.5376 18.4266 21.5327 17.9338 21.2807 17.4965C20.7115 16.5098 18.9935 15.9668 16.4432 15.9668C16.2599 15.9668 16.0704 15.9694 15.8742 15.9753L15.8743 15.9752ZM6.50639 21.4335C6.304 21.5658 6.09593 21.6446 5.94929 21.6446C5.92141 21.6446 5.90257 21.6418 5.89198 21.6389C5.86643 21.5097 5.95833 20.9505 6.86314 20.0656C7.28806 19.65 7.82531 19.2703 8.46167 18.9349C7.65883 20.2278 6.9365 21.1523 6.5064 21.4335L6.50639 21.4335ZM11.853 7.80097C11.9475 7.51152 12.0644 7.38075 12.1372 7.35645C12.139 7.35619 12.1406 7.35542 12.1421 7.3549C12.2124 7.43424 12.5116 7.88729 12.3776 9.73749C12.3543 10.0603 12.2759 10.4681 12.1437 10.9527C11.7113 9.83852 11.5925 8.60032 11.853 7.80096L11.853 7.80097ZM14.1666 16.0857C13.4776 16.1521 12.4279 16.2888 11.257 16.5661C11.7111 15.6584 12.1316 14.7384 12.4827 13.8858C12.6045 14.0385 12.7292 14.1951 12.8557 14.3556C13.2794 14.8904 13.7554 15.4912 14.2487 16.0781L14.1666 16.0857ZM20.1578 18.1449C20.1772 18.1783 20.1767 18.1917 20.1718 18.2005C20.1173 18.2951 19.8713 18.445 19.443 18.445C19.3235 18.445 19.1962 18.4328 19.0648 18.4083C18.5305 18.3093 17.9072 17.9395 17.1643 17.2802C19.1802 17.3766 19.9947 17.863 20.1579 18.1449L20.1578 18.1449Z" fill="#36EAB6"/>
<path d="M18.6194 0.827637H1.86156H0V32.3085V34.1724H26.0667V32.3085V8.28346L18.6194 0.827637ZM18.6194 3.46297L23.4347 8.28366H18.6194V3.46297ZM24.2056 32.3092H1.86202V2.69153H16.7575V8.28346V10.1474H24.2052L24.2056 32.3092Z" fill="#36EAB6"/>
<path d="M10.444 26.554C10.444 27.086 10.262 27.492 9.898 27.772C9.53867 28.052 9.051 28.192 8.435 28.192H7.952V30.075H7V25H8.526C9.128 25 9.597 25.1353 9.933 25.406C10.2737 25.672 10.444 26.0547 10.444 26.554ZM9.499 26.575C9.499 26.043 9.156 25.777 8.47 25.777H7.952V27.422H8.435C9.14433 27.422 9.499 27.1397 9.499 26.575Z" fill="#36EAB6"/>
<path d="M15.0375 25.693C15.5228 26.1503 15.7655 26.764 15.7655 27.534C15.7655 28.304 15.5181 28.92 15.0235 29.382C14.5335 29.844 13.8475 30.075 12.9655 30.075H11.3135V25H12.9655C13.8661 25 14.5568 25.231 15.0375 25.693ZM14.7855 27.541C14.7855 26.967 14.6221 26.533 14.2955 26.239C13.9688 25.945 13.5231 25.798 12.9585 25.798H12.2655V29.284H12.9515C13.5348 29.284 13.9851 29.1393 14.3025 28.85C14.6245 28.5607 14.7855 28.1243 14.7855 27.541Z" fill="#36EAB6"/>
<path d="M19.7082 25.833H17.7342V27.142H19.2532L19.3932 27.968H17.7342V30.075H16.7822V25H19.7082V25.833Z" fill="#36EAB6"/>
</svg>
